<svg width="57" height="61" viewBox="0 0 57 61" fill="none" xmlns="http://www.w3.org/2000/svg">
<path d="M55.4073 36.4475L48.2708 38.3385L42.1451 34.892V26.108L48.2708 22.6615L55.4073 24.5525L57 18.666L51.5787 17.2325L52.9876 11.834L47.0763 10.248L45.1773 17.3545L39.0516 20.801L31.5476 16.409V9.516L36.7851 4.3005L32.4358 0L28.4847 3.9345L24.5336 0L20.1843 4.3005L25.4218 9.516V16.409L17.7646 20.801L11.6389 17.3545L9.86244 10.248L3.98173 11.834L5.42128 17.2325L0 18.666L1.59269 24.5525L8.72918 22.6615L14.8549 26.108V34.9225L8.72918 38.369L1.59269 36.478L0 42.3645L5.42128 43.798L3.98173 49.166L9.89307 50.752L11.792 43.6455L17.9178 40.199L25.4218 44.591V51.484L20.1843 56.6995L24.5336 61L28.4847 57.0655L32.4358 61L36.7544 56.6995L31.5476 51.484V44.591L39.2047 40.1685L45.3305 43.615L47.2295 50.7215L52.9876 49.166L51.5481 43.7675L56.9694 42.334L55.4073 36.4475ZM20.8275 26.108L28.4847 21.6855L36.1419 26.108V34.892L28.4847 39.3145L20.8275 34.892V26.108Z" fill="#43BE32"/>
</svg>