<svg width="34" height="32" viewBox="0 0 34 32" fill="none" xmlns="http://www.w3.org/2000/svg">
<path d="M17.1603 31.22L14.7261 29.0502C11.9516 26.5704 9.93622 24.7365 8.67987 23.5482C7.42352 22.36 6.01012 20.8877 4.43968 19.1312C2.92159 17.3747 1.87463 15.799 1.2988 14.4042C0.722973 12.9577 0.435059 11.4853 0.435059 9.98713C0.435059 7.45573 1.2988 5.31178 3.02629 3.55529C4.80612 1.79881 7.00474 0.920563 9.62214 0.920563C12.6583 0.920563 15.171 2.08294 17.1603 4.4077C19.1495 2.08294 21.6622 0.920563 24.6984 0.920563C27.3158 0.920563 29.4882 1.79881 31.2157 3.55529C32.9955 5.31178 33.8854 7.45573 33.8854 9.98713C33.8854 12.0019 33.2049 14.0942 31.8439 16.264C30.4828 18.4338 28.9909 20.3194 27.3681 21.9209C25.7977 23.5224 23.2064 25.9247 19.5944 29.1277L17.1603 31.22Z" fill="white"/>
</svg>