<svg width="139" height="111" viewBox="0 0 139 111" fill="none" xmlns="http://www.w3.org/2000/svg">
<path d="M62.9171 110.492C64.552 110.528 66.1574 110.054 67.5102 109.137C68.863 108.219 69.896 106.902 70.4655 105.371C71.0351 103.84 71.1128 102.17 70.6881 100.593C70.2633 99.0151 69.3571 97.6098 68.0954 96.5707L19.9547 55.3739L68.0954 14.1916C68.9681 13.5509 69.6991 12.7374 70.2424 11.8014C70.7857 10.8653 71.1297 9.82705 71.2528 8.75209C71.3759 7.67713 71.2755 6.58858 70.9579 5.55417C70.6402 4.51977 70.1122 3.56171 69.4069 2.74059C68.7015 1.91946 67.8341 1.2534 66.8588 0.782676C65.8835 0.311957 64.8215 0.0475729 63.7391 0.00585761C62.6568 -0.0358577 61.5775 0.145495 60.5688 0.53975C59.5601 0.934005 58.6438 1.53204 57.8772 2.29643L2.76052 49.4032C1.89498 50.141 1.19995 51.0568 0.723358 52.089C0.246769 53.1211 -2.78304e-05 54.2445 -2.79297e-05 55.3811C-2.80291e-05 56.5178 0.246768 57.6412 0.723357 58.6733C1.19995 59.7055 1.89498 60.6222 2.76052 61.36L57.8772 108.512C59.2695 109.747 61.0554 110.45 62.9171 110.494L62.9171 110.492Z" fill="#43BE32"/>
<path d="M129 56.0632L13.0633 56.0632" stroke="#43BE32" stroke-width="20" stroke-linecap="round"/>
</svg>