<svg width="24" height="24" viewBox="0 0 24 24" fill="none" xmlns="http://www.w3.org/2000/svg">
<path d="M23.8537 11.7549C23.7349 11.5568 21.8091 8.40389 18.3755 6.29867L21.3573 3.31687L20.683 2.64258L17.5149 5.81059C15.941 4.99285 14.0954 4.42612 12 4.42612C4.61579 4.42612 0.3255 11.456 0.146211 11.7549L0 11.9999L0.146211 12.2448C0.26501 12.443 2.19084 15.5959 5.6245 17.7011L2.64269 20.6828L3.31699 21.3571L6.485 18.1891C8.05894 19.0069 9.90452 19.5736 12 19.5736C19.3842 19.5736 23.6745 12.5438 23.8537 12.2448L24 11.9998L23.8537 11.7549ZM6.33574 16.9898C3.48 15.2969 1.65133 12.7875 1.12324 11.9999C1.94472 10.7747 5.90898 5.37986 12 5.37986C13.7893 5.37986 15.3934 5.84721 16.7898 6.53579L15.3189 8.00671C14.4181 7.25667 13.2612 6.80433 12 6.80433C9.13569 6.80433 6.80498 9.13504 6.80498 11.9999C6.80498 13.2609 7.25722 14.4177 8.00712 15.3186L6.33574 16.9898ZM15.3144 9.35981C15.8933 10.085 16.2418 11.0019 16.2418 11.9999C16.2418 14.339 14.3391 16.2417 12 16.2417C11.002 16.2417 10.0853 15.8931 9.36002 15.3142L15.3144 9.35981ZM8.68582 14.6397C8.10708 13.9145 7.75862 12.9978 7.75862 11.9999C7.75862 9.6608 9.66135 7.75802 12 7.75802C12.9981 7.75802 13.9148 8.10662 14.6401 8.68546L8.68582 14.6397ZM12 18.6199C10.2107 18.6199 8.60669 18.1526 7.2102 17.464L8.68132 15.9929C9.58212 16.743 10.739 17.1954 12 17.1954C14.8648 17.1954 17.1955 14.8647 17.1955 11.9999C17.1955 10.7388 16.7432 9.58186 15.9932 8.68101L17.6643 7.00992C20.52 8.7029 22.3487 11.2123 22.8768 11.9999C22.0553 13.2251 18.091 18.6199 12 18.6199Z" fill="#7788A6"/>
</svg>
