<svg width="313" height="158" viewBox="0 0 313 158" fill="none" xmlns="http://www.w3.org/2000/svg">
<path d="M31.8137 88.7378C20.5579 93.5747 12.6842 99.9494 8.64393 103.711C6.80182 105.425 3.95306 105.426 2.10943 103.714C0.169929 101.913 0.0519896 98.8834 1.84921 96.9401C14.5454 83.2145 39.4226 56.8847 100.393 53.95C173.868 50.4141 190.324 105.003 255.76 92.0674C255.76 92.0674 223.82 94.608 162.585 51.8446C114.117 17.9965 58.196 44.5652 57.1764 44.8848C57.6329 44.1924 87.2999 0 145.432 0C210.107 0 238.26 82.9368 312.827 73.0452C312.827 73.0452 265.652 157.504 183.476 157.504C129.234 157.504 98.4484 120.298 71.2056 95.3803C60.5357 85.6197 45.0996 83.0273 31.8137 88.7378Z" fill="#43BE32"/>
</svg>
