<svg width="323" height="164" viewBox="0 0 323 164" fill="none" xmlns="http://www.w3.org/2000/svg">
<path d="M60.1771 47.2385C63.5562 42.2083 67.557 37.6057 71.8332 33.296C73.9789 31.1457 76.1976 29.0624 78.516 27.0917C79.6574 26.0843 80.852 25.1416 82.0351 24.1821C83.2427 23.2553 84.4449 22.3187 85.6828 21.4307C95.5546 14.2928 106.591 8.63411 118.353 5.10891C124.229 3.34594 130.267 2.10037 136.369 1.36764C142.477 0.637183 148.612 0.3777 154.838 0.718578C161.037 1.18196 167.175 2.41688 173.095 4.30008C179.037 6.14751 184.681 8.784 190.103 11.7233C195.525 14.6755 200.717 18.0029 205.701 21.554C210.697 25.0906 215.556 28.7862 220.334 32.5282C225.122 36.2581 229.845 40.0344 234.611 43.7095C239.383 47.3686 244.212 50.9128 249.155 54.2364C254.113 57.5318 259.221 60.5365 264.482 63.1715L268.464 65.0585C269.812 65.6337 271.174 66.1679 272.526 66.7263C273.868 67.3183 275.267 67.736 276.645 68.2124C278.027 68.6788 279.4 69.1764 280.817 69.5097C286.4 71.1859 292.178 72.0001 297.953 72.4292L302.3 72.6339L306.657 72.5205L308.834 72.4566L311.008 72.2337L315.353 71.7946L322.456 71.0763L319.007 77.1741C318.091 78.794 317.21 80.2313 316.273 81.7174C315.348 83.1912 314.4 84.6415 313.432 86.078C311.51 88.9595 309.492 91.7664 307.43 94.5406C303.286 100.073 298.893 105.415 294.245 110.539C284.938 120.76 274.692 130.229 263.277 138.212C260.462 140.258 257.5 142.101 254.559 143.969L250.045 146.617C248.545 147.506 246.968 148.268 245.433 149.099C239.227 152.298 232.813 155.163 226.143 157.345L223.658 158.204L221.128 158.928C219.436 159.395 217.761 159.921 216.055 160.335C212.626 161.092 209.213 161.936 205.725 162.406L203.122 162.823C202.688 162.887 202.255 162.971 201.819 163.02L200.508 163.148L195.26 163.657C194.386 163.765 193.507 163.771 192.629 163.804L189.994 163.893C188.238 163.942 186.482 164.049 184.723 163.975C177.692 163.885 170.644 163.176 163.722 161.789C156.808 160.38 150.008 158.35 143.502 155.649C136.989 152.967 130.733 149.721 124.781 146.048C118.844 142.352 113.193 138.262 107.79 133.926C96.9919 125.238 87.2069 115.575 77.4341 106.243L73.7575 102.77L71.9161 101.052C71.6019 100.749 71.312 100.501 71.0274 100.261L70.1661 99.5206C67.8339 97.5895 65.2332 95.9833 62.4567 94.7628C56.9068 92.3127 50.6561 91.4415 44.6292 92.2869C41.6008 92.7054 38.6927 93.5423 35.8348 94.7696C32.8605 96.0548 29.9623 97.5248 27.1576 99.1584C24.3629 100.808 21.6534 102.61 19.0801 104.582C17.7942 105.567 16.5379 106.591 15.3251 107.652C15.02 107.916 14.7202 108.184 14.4242 108.456C14.2378 108.623 13.5621 109.257 12.9519 109.632C11.6941 110.439 10.218 110.911 8.73199 110.96C5.74855 111.106 2.75142 109.508 1.23116 106.949C-0.345397 104.407 -0.420729 101.054 1.07974 98.4622C1.25094 98.1312 1.47617 97.836 1.68541 97.5309L2.0377 97.1048L2.21803 96.8955L2.33521 96.77L3.21707 95.8333L4.98538 93.9616C6.20508 92.7282 7.37304 91.4628 8.64525 90.2659C13.6184 85.397 19.0123 80.8804 24.7753 76.9139C36.2959 68.9177 49.3094 63.3746 62.6424 59.6296C76.0241 55.9309 89.8076 54.2569 103.536 53.7167C117.341 53.2974 131.331 54.7188 144.561 58.8291C151.177 60.8439 157.583 63.4477 163.778 66.3984C169.979 69.3453 175.958 72.659 181.892 75.9711C187.826 79.2863 193.727 82.5992 199.78 85.5758C205.829 88.5562 212.078 91.1174 218.572 92.8971C225.057 94.6867 231.762 95.7116 238.518 95.9285C245.276 96.1476 252.064 95.5587 258.763 94.4219C252.121 95.844 245.338 96.7304 238.509 96.8027C237.656 96.8065 236.8 96.8499 235.947 96.8217L233.386 96.7068C232.533 96.6582 231.675 96.6536 230.824 96.5684L228.272 96.2998C226.563 96.1544 224.878 95.8478 223.188 95.5609C221.488 95.3182 219.83 94.8807 218.154 94.517C211.475 92.9405 205.005 90.5528 198.766 87.7489C192.511 84.9656 186.472 81.779 180.448 78.6472C174.426 75.5138 168.416 72.4117 162.259 69.706C156.108 66.9896 149.813 64.6666 143.38 62.8877C130.527 59.2187 117.088 58.1732 103.775 58.8793L93.7505 59.7269C92.9136 59.781 92.0834 59.8928 91.2556 60.0176L88.7698 60.3668L83.7996 61.0638L82.5579 61.2411L81.329 61.4854L78.8714 61.9678L73.9568 62.9242C72.3255 63.2689 70.7246 63.7323 69.1069 64.1294C67.4984 64.5578 65.8693 64.9185 64.2791 65.4016C51.5494 69.2122 39.3136 74.6807 28.6049 82.3839C23.2398 86.2119 18.2499 90.5284 13.5925 95.2406C12.4094 96.3926 11.2901 97.642 10.1305 98.832L8.41851 100.681L7.56327 101.608L7.46435 101.716L7.44076 101.751C7.42402 101.774 7.405 101.794 7.38446 101.814C7.36772 101.867 7.31598 101.9 7.30304 101.953C7.08771 102.316 7.125 102.833 7.35098 103.175C7.58229 103.547 8.00915 103.751 8.42611 103.723C8.6384 103.716 8.83395 103.639 9.00287 103.529C8.94656 103.615 9.88017 102.725 10.4896 102.191C11.8204 101.001 13.1885 99.8645 14.587 98.7696C17.3848 96.5813 20.3218 94.5847 23.3585 92.751C26.4059 90.9348 29.5598 89.2935 32.8072 87.8516C36.1734 86.3588 39.8333 85.254 43.5312 84.7122C50.9468 83.5952 58.6683 84.5859 65.5779 87.5518C69.0339 89.0287 72.2859 90.9918 75.2085 93.3628L76.2882 94.272C76.6541 94.5779 77.0095 94.8815 77.3108 95.1653L79.2115 96.9047L82.9558 100.415C92.8565 109.811 102.477 119.232 112.894 127.553C118.1 131.703 123.491 135.571 129.099 139.039C134.721 142.481 140.574 145.489 146.633 147.961C152.685 150.451 158.974 152.301 165.371 153.583C171.769 154.873 178.291 155.564 184.842 155.666C186.479 155.744 188.118 155.643 189.756 155.603L192.214 155.53C193.033 155.501 193.854 155.502 194.669 155.402L199.564 154.942L200.788 154.829C201.195 154.785 201.599 154.707 202.004 154.648L204.434 154.266C207.689 153.844 210.878 153.056 214.085 152.367C215.681 151.985 217.249 151.493 218.834 151.064L221.205 150.397L223.537 149.597C229.793 147.578 235.836 144.899 241.707 141.898C243.161 141.116 244.652 140.408 246.075 139.568L250.359 137.074C253.155 135.307 255.974 133.572 258.662 131.63C269.542 124.062 279.521 115.133 288.579 105.349C293.108 100.454 297.405 95.3342 301.46 90.0331C303.476 87.3753 305.452 84.6848 307.328 81.9334C308.271 80.5623 309.196 79.1783 310.091 77.7836C310.98 76.4056 311.886 74.9523 312.655 73.6238L316.309 79.0033L311.614 79.4347L309.267 79.6477L306.906 79.698C305.331 79.7223 303.757 79.7634 302.183 79.7695L297.46 79.5032C291.185 78.9812 284.915 77.9441 278.914 76.0503C277.388 75.6592 275.919 75.1045 274.441 74.5787C272.967 74.0431 271.47 73.5614 270.047 72.9101C268.611 72.2915 267.164 71.6934 265.739 71.0558L261.548 68.9847C256.028 66.107 250.738 62.8686 245.668 59.3769C235.553 52.3509 226.193 44.5335 216.857 36.879C212.189 33.0464 207.49 29.3021 202.683 25.7305C197.888 22.1437 192.936 18.8133 187.79 15.8565C182.645 12.9126 177.317 10.2738 171.726 8.39746C166.149 6.50133 160.391 5.14164 154.519 4.53216C148.662 4.04063 142.656 4.10758 136.722 4.64553C130.784 5.18271 124.884 6.22055 119.112 7.76972C107.556 10.8429 96.5331 15.9584 86.5487 22.6664C84.0576 24.351 81.6182 26.1186 79.2564 27.9888C76.8794 29.8408 74.5929 31.8107 72.3726 33.8537C67.9443 37.9511 63.7662 42.3597 60.1771 47.2385Z" fill="#43BE32"/>
</svg>
