<svg width="964" height="128" viewBox="0 0 964 128" fill="none" xmlns="http://www.w3.org/2000/svg">
<path d="M463.168 88L457.344 82.112C455.168 84.3733 452.843 86.0587 450.368 87.168C447.893 88.2347 445.099 88.768 441.984 88.768C438.912 88.768 436.181 88.2133 433.792 87.104C431.445 85.9947 429.611 84.416 428.288 82.368C427.008 80.32 426.368 77.9307 426.368 75.2C426.368 72.0853 427.243 69.3547 428.992 67.008C430.784 64.6187 433.408 62.7413 436.864 61.376C435.499 59.7547 434.517 58.2613 433.92 56.896C433.323 55.5307 433.024 54.0373 433.024 52.416C433.024 50.5387 433.493 48.8533 434.432 47.36C435.413 45.824 436.8 44.6293 438.592 43.776C440.384 42.9227 442.453 42.496 444.8 42.496C447.104 42.496 449.109 42.944 450.816 43.84C452.523 44.736 453.803 45.9947 454.656 47.616C455.509 49.1947 455.893 50.9653 455.808 52.928H449.984C450.027 51.1787 449.536 49.8133 448.512 48.832C447.488 47.808 446.165 47.296 444.544 47.296C442.837 47.296 441.451 47.7867 440.384 48.768C439.36 49.7067 438.848 50.9227 438.848 52.416C438.848 53.696 439.189 54.9333 439.872 56.128C440.597 57.3227 441.792 58.7947 443.456 60.544L456.768 73.92L457.92 72.128L462.272 64.832H468.544L463.296 73.92C462.571 75.2 461.717 76.544 460.736 77.952L470.784 88H463.168ZM441.984 83.776C444.288 83.776 446.357 83.328 448.192 82.432C450.069 81.536 451.84 80.1493 453.504 78.272L440.384 65.088C434.923 67.1787 432.192 70.4853 432.192 75.008C432.192 77.5253 433.088 79.616 434.88 81.28C436.715 82.944 439.083 83.776 441.984 83.776ZM507.575 57.728H500.215V88H494.391V57.728H489.847V52.928H494.391V50.432C494.391 46.5067 495.394 43.648 497.399 41.856C499.447 40.0213 502.711 39.104 507.191 39.104V43.968C504.631 43.968 502.818 44.48 501.751 45.504C500.727 46.4853 500.215 48.128 500.215 50.432V52.928H507.575V57.728ZM517.374 47.232C516.264 47.232 515.326 46.848 514.558 46.08C513.79 45.312 513.406 44.3733 513.406 43.264C513.406 42.1547 513.79 41.216 514.558 40.448C515.326 39.68 516.264 39.296 517.374 39.296C518.44 39.296 519.336 39.68 520.062 40.448C520.83 41.216 521.214 42.1547 521.214 43.264C521.214 44.3733 520.83 45.312 520.062 46.08C519.336 46.848 518.44 47.232 517.374 47.232ZM520.19 52.928V88H514.366V52.928H520.19ZM547.204 52.288C551.47 52.288 554.926 53.5893 557.572 56.192C560.217 58.752 561.54 62.464 561.54 67.328V88H555.78V68.16C555.78 64.6613 554.905 61.9947 553.156 60.16C551.406 58.2827 549.017 57.344 545.988 57.344C542.916 57.344 540.462 58.304 538.628 60.224C536.836 62.144 535.94 64.9387 535.94 68.608V88H530.116V52.928H535.94V57.92C537.092 56.128 538.649 54.7413 540.612 53.76C542.617 52.7787 544.814 52.288 547.204 52.288ZM568.877 70.336C568.877 66.752 569.602 63.616 571.053 60.928C572.504 58.1973 574.488 56.0853 577.005 54.592C579.565 53.0987 582.424 52.352 585.581 52.352C588.312 52.352 590.85 52.992 593.197 54.272C595.544 55.5093 597.336 57.152 598.573 59.2V40.64H604.461V88H598.573V81.408C597.421 83.4987 595.714 85.2267 593.453 86.592C591.192 87.9147 588.546 88.576 585.517 88.576C582.402 88.576 579.565 87.808 577.005 86.272C574.488 84.736 572.504 82.5813 571.053 79.808C569.602 77.0347 568.877 73.8773 568.877 70.336ZM598.573 70.4C598.573 67.7547 598.04 65.4507 596.973 63.488C595.906 61.5253 594.456 60.032 592.621 59.008C590.829 57.9413 588.845 57.408 586.669 57.408C584.493 57.408 582.509 57.92 580.717 58.944C578.925 59.968 577.496 61.4613 576.429 63.424C575.362 65.3867 574.829 67.6907 574.829 70.336C574.829 73.024 575.362 75.3707 576.429 77.376C577.496 79.3387 578.925 80.8533 580.717 81.92C582.509 82.944 584.493 83.456 586.669 83.456C588.845 83.456 590.829 82.944 592.621 81.92C594.456 80.8533 595.906 79.3387 596.973 77.376C598.04 75.3707 598.573 73.0453 598.573 70.4ZM661.574 52.928L640.454 104.512H634.438L641.35 87.616L627.206 52.928H633.67L644.678 81.344L655.558 52.928H661.574ZM682.724 88.576C679.439 88.576 676.452 87.8293 673.764 86.336C671.119 84.8427 669.028 82.7307 667.492 80C665.999 77.2267 665.252 74.0267 665.252 70.4C665.252 66.816 666.02 63.6587 667.556 60.928C669.135 58.1547 671.268 56.0427 673.956 54.592C676.644 53.0987 679.652 52.352 682.98 52.352C686.308 52.352 689.316 53.0987 692.004 54.592C694.692 56.0427 696.804 58.1333 698.34 60.864C699.919 63.5947 700.708 66.7733 700.708 70.4C700.708 74.0267 699.897 77.2267 698.276 80C696.697 82.7307 694.543 84.8427 691.812 86.336C689.081 87.8293 686.052 88.576 682.724 88.576ZM682.724 83.456C684.815 83.456 686.777 82.9653 688.612 81.984C690.447 81.0027 691.919 79.5307 693.028 77.568C694.18 75.6053 694.756 73.216 694.756 70.4C694.756 67.584 694.201 65.1947 693.092 63.232C691.983 61.2693 690.532 59.8187 688.74 58.88C686.948 57.8987 685.007 57.408 682.916 57.408C680.783 57.408 678.82 57.8987 677.028 58.88C675.279 59.8187 673.871 61.2693 672.804 63.232C671.737 65.1947 671.204 67.584 671.204 70.4C671.204 73.2587 671.716 75.6693 672.74 77.632C673.807 79.5947 675.215 81.0667 676.964 82.048C678.713 82.9867 680.633 83.456 682.724 83.456ZM739.47 52.928V88H733.646V82.816C732.536 84.608 730.979 86.016 728.974 87.04C727.011 88.0213 724.835 88.512 722.446 88.512C719.715 88.512 717.262 87.9573 715.086 86.848C712.91 85.696 711.182 83.9893 709.902 81.728C708.664 79.4667 708.046 76.7147 708.046 73.472V52.928H713.806V72.704C713.806 76.16 714.68 78.8267 716.43 80.704C718.179 82.5387 720.568 83.456 723.598 83.456C726.712 83.456 729.166 82.496 730.958 80.576C732.75 78.656 733.646 75.8613 733.646 72.192V52.928H739.47ZM755.127 58.624C756.151 56.6187 757.602 55.0613 759.479 53.952C761.399 52.8427 763.724 52.288 766.455 52.288V58.304H764.919C758.391 58.304 755.127 61.8453 755.127 68.928V88H749.303V52.928H755.127V58.624ZM797.345 57.728V78.4C797.345 80.1067 797.707 81.3227 798.433 82.048C799.158 82.7307 800.417 83.072 802.208 83.072H806.497V88H801.249C798.006 88 795.574 87.2533 793.953 85.76C792.331 84.2667 791.521 81.8133 791.521 78.4V57.728H786.977V52.928H791.521V44.096H797.345V52.928H806.497V57.728H797.345ZM819.377 58.624C820.401 56.6187 821.852 55.0613 823.729 53.952C825.649 52.8427 827.974 52.288 830.705 52.288V58.304H829.169C822.641 58.304 819.377 61.8453 819.377 68.928V88H813.553V52.928H819.377V58.624ZM835.252 70.336C835.252 66.752 835.977 63.616 837.428 60.928C838.879 58.1973 840.863 56.0853 843.38 54.592C845.94 53.0987 848.777 52.352 851.892 52.352C854.964 52.352 857.631 53.0133 859.892 54.336C862.153 55.6587 863.839 57.3227 864.948 59.328V52.928H870.836V88H864.948V81.472C863.796 83.52 862.068 85.2267 859.764 86.592C857.503 87.9147 854.857 88.576 851.828 88.576C848.713 88.576 845.897 87.808 843.38 86.272C840.863 84.736 838.879 82.5813 837.428 79.808C835.977 77.0347 835.252 73.8773 835.252 70.336ZM864.948 70.4C864.948 67.7547 864.415 65.4507 863.348 63.488C862.281 61.5253 860.831 60.032 858.996 59.008C857.204 57.9413 855.22 57.408 853.044 57.408C850.868 57.408 848.884 57.92 847.092 58.944C845.3 59.968 843.871 61.4613 842.804 63.424C841.737 65.3867 841.204 67.6907 841.204 70.336C841.204 73.024 841.737 75.3707 842.804 77.376C843.871 79.3387 845.3 80.8533 847.092 81.92C848.884 82.944 850.868 83.456 853.044 83.456C855.22 83.456 857.204 82.944 858.996 81.92C860.831 80.8533 862.281 79.3387 863.348 77.376C864.415 75.3707 864.948 73.0453 864.948 70.4ZM878.502 70.4C878.502 66.7733 879.227 63.616 880.678 60.928C882.129 58.1973 884.134 56.0853 886.694 54.592C889.297 53.0987 892.262 52.352 895.59 52.352C899.899 52.352 903.441 53.3973 906.214 55.488C909.03 57.5787 910.886 60.48 911.782 64.192H905.51C904.913 62.0587 903.739 60.3733 901.99 59.136C900.283 57.8987 898.15 57.28 895.59 57.28C892.262 57.28 889.574 58.432 887.526 60.736C885.478 62.9973 884.454 66.2187 884.454 70.4C884.454 74.624 885.478 77.888 887.526 80.192C889.574 82.496 892.262 83.648 895.59 83.648C898.15 83.648 900.283 83.0507 901.99 81.856C903.697 80.6613 904.87 78.9547 905.51 76.736H911.782C910.843 80.32 908.966 83.2 906.15 85.376C903.334 87.5093 899.814 88.576 895.59 88.576C892.262 88.576 889.297 87.8293 886.694 86.336C884.134 84.8427 882.129 82.7307 880.678 80C879.227 77.2693 878.502 74.0693 878.502 70.4ZM939.137 88L925.377 72.512V88H919.553V40.64H925.377V68.48L938.881 52.928H947.009L930.497 70.4L947.073 88H939.137Z" fill="#43BE32"/>
<path d="M339 3.5H64C30.5868 3.5 3.5 30.5868 3.5 64C3.5 97.4132 30.5868 124.5 64 124.5H339C372.413 124.5 399.5 97.4132 399.5 64C399.5 30.5868 372.413 3.5 339 3.5Z" fill="white" stroke="#1F3F27" stroke-width="7"/>
<path d="M275.88 110L272.56 104.3H270.36V110H268.54V96.0601H273.04C274.093 96.0601 274.98 96.2401 275.7 96.6001C276.433 96.9601 276.98 97.4468 277.34 98.0601C277.7 98.6734 277.88 99.3734 277.88 100.16C277.88 101.12 277.6 101.967 277.04 102.7C276.493 103.433 275.667 103.92 274.56 104.16L278.06 110H275.88ZM270.36 102.84H273.04C274.027 102.84 274.767 102.6 275.26 102.12C275.753 101.627 276 100.973 276 100.16C276 99.3334 275.753 98.6934 275.26 98.2401C274.78 97.7868 274.04 97.5601 273.04 97.5601H270.36V102.84ZM290.708 104.1C290.708 104.447 290.688 104.813 290.648 105.2H281.888C281.955 106.28 282.321 107.127 282.988 107.74C283.668 108.34 284.488 108.64 285.448 108.64C286.235 108.64 286.888 108.46 287.408 108.1C287.941 107.727 288.315 107.233 288.528 106.62H290.488C290.195 107.673 289.608 108.533 288.728 109.2C287.848 109.853 286.755 110.18 285.448 110.18C284.408 110.18 283.475 109.947 282.648 109.48C281.835 109.013 281.195 108.353 280.728 107.5C280.261 106.633 280.028 105.633 280.028 104.5C280.028 103.367 280.255 102.373 280.708 101.52C281.161 100.667 281.795 100.013 282.608 99.5601C283.435 99.0934 284.381 98.8601 285.448 98.8601C286.488 98.8601 287.408 99.0868 288.208 99.5401C289.008 99.9934 289.621 100.62 290.048 101.42C290.488 102.207 290.708 103.1 290.708 104.1ZM288.828 103.72C288.828 103.027 288.675 102.433 288.368 101.94C288.061 101.433 287.641 101.053 287.108 100.8C286.588 100.533 286.008 100.4 285.368 100.4C284.448 100.4 283.661 100.693 283.008 101.28C282.368 101.867 282.001 102.68 281.908 103.72H288.828ZM298.45 98.8401C299.784 98.8401 300.864 99.2468 301.69 100.06C302.517 100.86 302.93 102.02 302.93 103.54V110H301.13V103.8C301.13 102.707 300.857 101.873 300.31 101.3C299.764 100.713 299.017 100.42 298.07 100.42C297.11 100.42 296.344 100.72 295.77 101.32C295.21 101.92 294.93 102.793 294.93 103.94V110H293.11V99.0401H294.93V100.6C295.29 100.04 295.777 99.6068 296.39 99.3001C297.017 98.9934 297.704 98.8401 298.45 98.8401ZM308.123 100.54V107C308.123 107.533 308.237 107.913 308.463 108.14C308.69 108.353 309.083 108.46 309.643 108.46H310.983V110H309.343C308.33 110 307.57 109.767 307.063 109.3C306.557 108.833 306.303 108.067 306.303 107V100.54H304.883V99.0401H306.303V96.2801H308.123V99.0401H310.983V100.54H308.123ZM317.84 104.48C317.84 103.36 318.067 102.38 318.52 101.54C318.974 100.687 319.594 100.027 320.38 99.5601C321.18 99.0934 322.067 98.8601 323.04 98.8601C324 98.8601 324.834 99.0668 325.54 99.4801C326.247 99.8934 326.774 100.413 327.12 101.04V99.0401H328.96V110H327.12V107.96C326.76 108.6 326.22 109.133 325.5 109.56C324.794 109.973 323.967 110.18 323.02 110.18C322.047 110.18 321.167 109.94 320.38 109.46C319.594 108.98 318.974 108.307 318.52 107.44C318.067 106.573 317.84 105.587 317.84 104.48ZM327.12 104.5C327.12 103.673 326.954 102.953 326.62 102.34C326.287 101.727 325.834 101.26 325.26 100.94C324.7 100.607 324.08 100.44 323.4 100.44C322.72 100.44 322.1 100.6 321.54 100.92C320.98 101.24 320.534 101.707 320.2 102.32C319.867 102.933 319.7 103.653 319.7 104.48C319.7 105.32 319.867 106.053 320.2 106.68C320.534 107.293 320.98 107.767 321.54 108.1C322.1 108.42 322.72 108.58 323.4 108.58C324.08 108.58 324.7 108.42 325.26 108.1C325.834 107.767 326.287 107.293 326.62 106.68C326.954 106.053 327.12 105.327 327.12 104.5ZM336.688 104.5C336.688 103.367 336.915 102.38 337.368 101.54C337.821 100.687 338.448 100.027 339.248 99.5601C340.061 99.0934 340.988 98.8601 342.028 98.8601C343.375 98.8601 344.481 99.1868 345.348 99.8401C346.228 100.493 346.808 101.4 347.088 102.56H345.128C344.941 101.893 344.575 101.367 344.028 100.98C343.495 100.593 342.828 100.4 342.028 100.4C340.988 100.4 340.148 100.76 339.508 101.48C338.868 102.187 338.548 103.193 338.548 104.5C338.548 105.82 338.868 106.84 339.508 107.56C340.148 108.28 340.988 108.64 342.028 108.64C342.828 108.64 343.495 108.453 344.028 108.08C344.561 107.707 344.928 107.173 345.128 106.48H347.088C346.795 107.6 346.208 108.5 345.328 109.18C344.448 109.847 343.348 110.18 342.028 110.18C340.988 110.18 340.061 109.947 339.248 109.48C338.448 109.013 337.821 108.353 337.368 107.5C336.915 106.647 336.688 105.647 336.688 104.5ZM348.837 104.48C348.837 103.36 349.063 102.38 349.517 101.54C349.97 100.687 350.59 100.027 351.377 99.5601C352.177 99.0934 353.063 98.8601 354.037 98.8601C354.997 98.8601 355.83 99.0668 356.537 99.4801C357.243 99.8934 357.77 100.413 358.117 101.04V99.0401H359.957V110H358.117V107.96C357.757 108.6 357.217 109.133 356.497 109.56C355.79 109.973 354.963 110.18 354.017 110.18C353.043 110.18 352.163 109.94 351.377 109.46C350.59 108.98 349.97 108.307 349.517 107.44C349.063 106.573 348.837 105.587 348.837 104.48ZM358.117 104.5C358.117 103.673 357.95 102.953 357.617 102.34C357.283 101.727 356.83 101.26 356.257 100.94C355.697 100.607 355.077 100.44 354.397 100.44C353.717 100.44 353.097 100.6 352.537 100.92C351.977 101.24 351.53 101.707 351.197 102.32C350.863 102.933 350.697 103.653 350.697 104.48C350.697 105.32 350.863 106.053 351.197 106.68C351.53 107.293 351.977 107.767 352.537 108.1C353.097 108.42 353.717 108.58 354.397 108.58C355.077 108.58 355.697 108.42 356.257 108.1C356.83 107.767 357.283 107.293 357.617 106.68C357.95 106.053 358.117 105.327 358.117 104.5ZM364.852 100.82C365.172 100.193 365.626 99.7068 366.212 99.3601C366.812 99.0134 367.539 98.8401 368.392 98.8401V100.72H367.912C365.872 100.72 364.852 101.827 364.852 104.04V110H363.032V99.0401H364.852V100.82Z" fill="#43BE32"/>
<path fill-rule="evenodd" clip-rule="evenodd" d="M209.648 107L245.267 53.0242L219.948 53.0106L230.546 30H214.199L201 67.0256L219.144 67.0063C219.144 67.0063 215.979 80.3376 209.648 107Z" fill="#43BE32"/>
<path fill-rule="evenodd" clip-rule="evenodd" d="M230.628 50.2385L239.899 30.082L256.192 30.1367L246.811 50.4023L230.628 50.2385Z" fill="#1F3F27"/>
<path d="M40.816 42.392C45.68 42.392 49.8827 43.3093 53.424 45.144C57.008 46.936 59.7387 49.5173 61.616 52.888C63.536 56.2587 64.496 60.2267 64.496 64.792C64.496 69.3573 63.536 73.3253 61.616 76.696C59.7387 80.024 57.008 82.584 53.424 84.376C49.8827 86.1253 45.68 87 40.816 87H26.928V42.392H40.816ZM40.816 82.2C46.576 82.2 50.9707 80.6853 54 77.656C57.0293 74.584 58.544 70.296 58.544 64.792C58.544 59.2453 57.008 54.9147 53.936 51.8C50.9067 48.6853 46.5333 47.128 40.816 47.128H32.752V82.2H40.816ZM78.002 57.624C79.026 55.6187 80.4767 54.0613 82.354 52.952C84.274 51.8427 86.5993 51.288 89.33 51.288V57.304H87.794C81.266 57.304 78.002 60.8453 78.002 67.928V87H72.178V51.928H78.002V57.624ZM99.061 46.232C97.9517 46.232 97.013 45.848 96.245 45.08C95.477 44.312 95.093 43.3733 95.093 42.264C95.093 41.1547 95.477 40.216 96.245 39.448C97.013 38.68 97.9517 38.296 99.061 38.296C100.128 38.296 101.024 38.68 101.749 39.448C102.517 40.216 102.901 41.1547 102.901 42.264C102.901 43.3733 102.517 44.312 101.749 45.08C101.024 45.848 100.128 46.232 99.061 46.232ZM101.877 51.928V87H96.053V51.928H101.877ZM124.859 81.624L135.739 51.928H141.947L128.187 87H121.403L107.643 51.928H113.915L124.859 81.624ZM179.678 68.12C179.678 69.2293 179.614 70.4027 179.486 71.64H151.454C151.667 75.096 152.841 77.8053 154.974 79.768C157.15 81.688 159.774 82.648 162.846 82.648C165.363 82.648 167.454 82.072 169.118 80.92C170.825 79.7253 172.019 78.1467 172.702 76.184H178.974C178.035 79.5547 176.158 82.3067 173.342 84.44C170.526 86.5307 167.027 87.576 162.846 87.576C159.518 87.576 156.531 86.8293 153.886 85.336C151.283 83.8427 149.235 81.7307 147.742 79C146.249 76.2267 145.502 73.0267 145.502 69.4C145.502 65.7733 146.227 62.5947 147.678 59.864C149.129 57.1333 151.155 55.0427 153.758 53.592C156.403 52.0987 159.433 51.352 162.846 51.352C166.174 51.352 169.118 52.0773 171.678 53.528C174.238 54.9787 176.201 56.984 177.566 59.544C178.974 62.0613 179.678 64.92 179.678 68.12ZM173.662 66.904C173.662 64.6853 173.171 62.7867 172.19 61.208C171.209 59.5867 169.865 58.3707 168.158 57.56C166.494 56.7067 164.638 56.28 162.59 56.28C159.646 56.28 157.129 57.2187 155.038 59.096C152.99 60.9733 151.817 63.576 151.518 66.904H173.662ZM278.502 82.264H294.118V87H272.678V42.392H278.502V82.264ZM303.311 46.232C302.202 46.232 301.263 45.848 300.495 45.08C299.727 44.312 299.343 43.3733 299.343 42.264C299.343 41.1547 299.727 40.216 300.495 39.448C301.263 38.68 302.202 38.296 303.311 38.296C304.378 38.296 305.274 38.68 305.999 39.448C306.767 40.216 307.151 41.1547 307.151 42.264C307.151 43.3733 306.767 44.312 305.999 45.08C305.274 45.848 304.378 46.232 303.311 46.232ZM306.127 51.928V87H300.303V51.928H306.127ZM330.325 56.728H322.965V87H317.141V56.728H312.597V51.928H317.141V49.432C317.141 45.5067 318.144 42.648 320.149 40.856C322.197 39.0213 325.461 38.104 329.941 38.104V42.968C327.381 42.968 325.568 43.48 324.501 44.504C323.477 45.4853 322.965 47.128 322.965 49.432V51.928H330.325V56.728ZM369.116 68.12C369.116 69.2293 369.052 70.4027 368.924 71.64H340.892C341.105 75.096 342.278 77.8053 344.412 79.768C346.588 81.688 349.212 82.648 352.284 82.648C354.801 82.648 356.892 82.072 358.556 80.92C360.262 79.7253 361.457 78.1467 362.14 76.184H368.412C367.473 79.5547 365.596 82.3067 362.78 84.44C359.964 86.5307 356.465 87.576 352.284 87.576C348.956 87.576 345.969 86.8293 343.324 85.336C340.721 83.8427 338.673 81.7307 337.18 79C335.686 76.2267 334.94 73.0267 334.94 69.4C334.94 65.7733 335.665 62.5947 337.116 59.864C338.566 57.1333 340.593 55.0427 343.196 53.592C345.841 52.0987 348.87 51.352 352.284 51.352C355.612 51.352 358.556 52.0773 361.116 53.528C363.676 54.9787 365.638 56.984 367.004 59.544C368.412 62.0613 369.116 64.92 369.116 68.12ZM363.1 66.904C363.1 64.6853 362.609 62.7867 361.628 61.208C360.646 59.5867 359.302 58.3707 357.596 57.56C355.932 56.7067 354.076 56.28 352.028 56.28C349.084 56.28 346.566 57.2187 344.476 59.096C342.428 60.9733 341.254 63.576 340.956 66.904H363.1Z" fill="#43BE32"/>
</svg>