<svg width="22" height="14" viewBox="0 0 22 14" fill="none" xmlns="http://www.w3.org/2000/svg">
<path d="M21.9996 1.64665C22.0068 1.32567 21.9124 1.01046 21.7298 0.744843C21.547 0.479211 21.2848 0.276408 20.98 0.164571C20.6751 0.0527535 20.3426 0.0374776 20.0287 0.120884C19.7145 0.20429 19.4347 0.382218 19.2278 0.629944L11.0253 10.082L2.82563 0.629945C2.69806 0.458576 2.53609 0.315068 2.34973 0.208395C2.16334 0.101722 1.95662 0.0341806 1.74259 0.0100106C1.52856 -0.0141593 1.31182 0.00555319 1.10587 0.0679121C0.899912 0.13027 0.709157 0.23394 0.545667 0.37244C0.382175 0.510921 0.249559 0.681248 0.155835 0.872742C0.0621122 1.06421 0.00947179 1.27275 0.00116604 1.48525C-0.00713971 1.69778 0.0289687 1.90969 0.107467 2.10774C0.185966 2.30579 0.305038 2.4857 0.457232 2.63622L9.83646 13.458C9.98337 13.6279 10.1657 13.7644 10.3712 13.858C10.5767 13.9515 10.8004 14 11.0267 14C11.253 14 11.4767 13.9515 11.6822 13.858C11.8877 13.7644 12.0702 13.6279 12.2171 13.458L21.6054 2.63622C21.8513 2.36283 21.9912 2.0122 22 1.64665L21.9996 1.64665Z" fill="#1F3F27"/>
</svg>
