<svg width="58" height="58" viewBox="0 0 58 58" fill="none" xmlns="http://www.w3.org/2000/svg">
<circle cx="29" cy="29" r="29" fill="#1F3F27"/>
<path d="M26.53 44.9994C27.0115 45.0098 27.4843 44.8726 27.8827 44.607C28.2812 44.3411 28.5854 43.9597 28.7531 43.5163C28.9209 43.0729 28.9438 42.5893 28.8187 42.1326C28.6936 41.6756 28.4267 41.2686 28.0551 40.9677L13.877 29.0368L28.0551 17.11C28.3121 16.9245 28.5274 16.6889 28.6874 16.4178C28.8474 16.1467 28.9487 15.846 28.985 15.5347C29.0212 15.2234 28.9917 14.9081 28.8981 14.6085C28.8046 14.309 28.6491 14.0315 28.4413 13.7937C28.2336 13.5559 27.9781 13.363 27.6909 13.2267C27.4037 13.0903 27.0909 13.0138 26.7721 13.0017C26.4533 12.9896 26.1355 13.0421 25.8384 13.1563C25.5413 13.2705 25.2715 13.4437 25.0457 13.6651L8.81302 27.3076C8.55811 27.5213 8.35341 27.7865 8.21305 28.0854C8.07269 28.3843 8 28.7097 8 29.0388C8 29.368 8.07269 29.6934 8.21305 29.9923C8.35341 30.2912 8.55811 30.5567 8.81302 30.7704L25.0457 44.426C25.4558 44.7837 25.9817 44.9873 26.53 45V44.9994Z" fill="white"/>
<path d="M44 29H12H44Z" fill="white"/>
<path d="M44 29H12" stroke="white" stroke-width="5" stroke-linecap="round"/>
</svg>
